{
  "title": "Ouija 2014 720p FIRST ENG HDCAM x264 Pimp4003",
  "uid": 11365900,
  "size": 1564275146,
  "categoryP": "video",
  "categoryS": "movies",
  "magnet": "?xt=urn:btih:bcd5c44e2b1b17c82861b96265fc38bb627e9e72&amp;dn=Ouija+2014+720p+FIRST+ENG+HDCAM+x264+Pimp4003&amp;tr=udp%3A%2F%2Ftracker.openbittorrent.com%3A80&amp;tr=udp%3A%2F%2Fopen.demonii.com%3A1337&amp;tr=udp%3A%2F%2Ftracker.coppersurfer.tk%3A6969&amp;tr=udp%3A%2F%2Fexodus.desync.com%3A6969",
  "seeders": 52,
  "leechers": 0,
  "uploader": "shawnmurthy",
  "files": -1,
  "time": 1415044132,
  "description": "THERE ARE NO STRINGS.....ON ME.......PIMP4003.......PIMPIN 24/7\n &lt;a href=&quot;\nhttp://i.imgur.com/c1Ejtiu.jpg&quot; rel=&quot;nofollow&quot; target=&quot;_NEW&quot;&gt;\nhttp://i.imgur.com/c1Ejtiu.jpg&lt;/a&gt;\n &lt;a href=&quot;\nhttp://i.imgur.com/fW5GLTr.jpg&quot; rel=&quot;nofollow&quot; target=&quot;_NEW&quot;&gt;\nhttp://i.imgur.com/fW5GLTr.jpg&lt;/a&gt;\n &lt;a href=&quot;\nhttp://i.imgur.com/yq2Kk4f.jpg&quot; rel=&quot;nofollow&quot; target=&quot;_NEW&quot;&gt;\nhttp://i.imgur.com/yq2Kk4f.jpg&lt;/a&gt;\n\nOuija 2014 720p FIRST ENG HDCAM x264 Pimp4003\n\nENJOY\n\nPIMP4003\n\nVideo\nID                                       : 1\nFormat                                   : MPEG-4 Visual\nFormat profile                           : Simple@L3\nFormat settings, BVOP                    : No\nFormat settings, QPel                    : No\nFormat settings, GMC                     : No warppoints\nFormat settings, Matrix                  : Default (H.263)\nCodec ID                                 : 20\nDuration                                 : 1h 23mn\nBit rate                                 : 2 392 Kbps\nWidth                                    : 1 280 pixels\nHeight                                   : 536 pixels\nDisplay aspect ratio                     : 2.40:1\nFrame rate mode                          : Variable\nFrame rate                               : 59.940 fps\nMinimum frame rate                       : 59.916 fps\nMaximum frame rate                       : 60.157 fps\nColor space                              : YUV\nChroma subsampling                       : 4:2:0\nBit depth                                : 8 bits\nScan type                                : Progressive\nCompression mode                         : Lossy\nBits/(Pixel*Frame)                       : 0.058\nStream size                              : 1.40 GiB (96%)\nWriting library                          : ZJMedia MPEG Encoder\n\nAudio\nID                                       : 2\nFormat                                   : AAC\nFormat/Info                              : Advanced Audio Codec\nFormat profile                           : LC\nCodec ID                                 : 40\nDuration                                 : 1h 23mn\nBit rate mode                            : Variable\nBit rate                                 : 93.9 Kbps\nChannel(s)                               : 2 channels\nChannel positions                        : Front: L R\nSampling rate                            : 48.0 KHz\nCompression mode                         : Lossy\nStream size                              : 56.2 MiB (4%)",
  "parsed": {
    "xt": "urn:btih:bcd5c44e2b1b17c82861b96265fc38bb627e9e72",
    "dn": "Ouija 2014 720p FIRST ENG HDCAM x264 Pimp4003",
    "tr": [
      "udp://exodus.desync.com:6969",
      "udp://open.demonii.com:1337",
      "udp://tracker.coppersurfer.tk:6969",
      "udp://tracker.openbittorrent.com:80"
    ],
    "infoHash": "bcd5c44e2b1b17c82861b96265fc38bb627e9e72",
    "infoHashBuffer": {
      "type": "Buffer",
      "data": [
        188,
        213,
        196,
        78,
        43,
        27,
        23,
        200,
        40,
        97,
        185,
        98,
        101,
        252,
        56,
        187,
        98,
        126,
        158,
        114
      ]
    },
    "name": "Ouija 2014 720p FIRST ENG HDCAM x264 Pimp4003",
    "announce": [
      "udp://exodus.desync.com:6969",
      "udp://open.demonii.com:1337",
      "udp://tracker.coppersurfer.tk:6969",
      "udp://tracker.openbittorrent.com:80"
    ],
    "urlList": []
  },
  "previous": 52,
  "peers": 1,
  "last_updated": "2016-12-25T12:29:40.093Z"
}